<?xml version="1.0" standalone="no"?>
<!DOCTYPE svg PUBLIC "-//W3C//DTD SVG 20010904//EN"
 "http://www.w3.org/TR/2001/REC-SVG-20010904/DTD/svg10.dtd">
<svg version="1.0" xmlns="http://www.w3.org/2000/svg"
 width="1044.000000pt" height="1044.000000pt" viewBox="0 0 1044.000000 1044.000000"
 preserveAspectRatio="xMidYMid meet">
<metadata>
Created by potrace 1.11, written by Peter Selinger 2001-2013
</metadata>
<g transform="translate(0.000000,1044.000000) scale(0.100000,-0.100000)"
fill="#000000" stroke="none">
<path d="M4959 10115 c-2 -1 -60 -6 -127 -10 -68 -3 -131 -8 -140 -10 -10 -1
-46 -6 -82 -10 -36 -3 -76 -8 -90 -10 -14 -2 -47 -6 -75 -10 -27 -3 -61 -8
-75 -11 -126 -21 -158 -27 -176 -29 -31 -4 -299 -64 -364 -81 -137 -37 -428
-128 -520 -164 -166 -64 -223 -87 -280 -113 -322 -142 -608 -300 -875 -482
-101 -69 -323 -235 -360 -268 -11 -10 -37 -33 -59 -50 -265 -217 -613 -587
-804 -857 -26 -36 -49 -67 -52 -70 -16 -14 -161 -239 -234 -364 -256 -437
-429 -880 -541 -1386 -14 -63 -28 -131 -31 -150 -3 -19 -7 -46 -10 -60 -4 -25
-30 -212 -39 -285 -28 -222 -28 -690 0 -965 11 -105 40 -295 56 -372 6 -25 13
-59 15 -75 8 -51 12 -67 39 -173 32 -128 92 -338 105 -365 5 -11 19 -49 31
-85 71 -214 229 -556 359 -780 136 -234 345 -533 489 -700 31 -36 61 -71 66
-77 6 -7 33 -37 60 -66 218 -234 370 -378 562 -532 59 -48 117 -94 128 -103
42 -34 284 -201 365 -252 47 -29 97 -61 112 -71 15 -11 30 -19 33 -19 3 0 33
-17 68 -38 311 -188 913 -435 1269 -522 43 -10 81 -21 85 -23 4 -3 24 -8 43
-11 19 -3 60 -12 92 -20 62 -17 55 -16 254 -51 78 -14 162 -27 187 -30 24 -3
54 -8 65 -10 11 -2 53 -7 94 -10 40 -4 86 -8 103 -10 215 -27 871 -27 1036 0
13 2 54 6 91 10 37 3 77 8 90 10 13 2 46 6 73 10 68 8 287 45 295 50 3 2 23 6
45 9 184 28 608 153 885 261 124 48 177 71 285 120 97 44 342 169 356 181 8 8
19 14 24 14 21 0 487 295 529 335 6 6 36 28 66 50 30 21 69 50 85 64 17 15 48
40 69 56 41 32 43 34 132 110 207 178 441 422 636 663 73 90 328 452 328 466
0 1 31 54 68 117 185 310 349 693 457 1065 24 84 47 163 49 176 3 13 7 32 10
43 16 67 56 272 66 335 7 41 14 82 15 90 2 8 6 42 9 75 4 33 9 80 13 105 13
102 14 138 17 420 2 162 -1 331 -5 375 -4 44 -11 116 -14 160 -4 44 -9 82 -10
85 -2 3 -6 30 -10 60 -35 313 -181 848 -315 1155 -82 189 -139 305 -256 525
-24 44 -198 318 -239 376 -121 169 -293 385 -394 494 -80 86 -218 225 -277
280 -33 30 -80 73 -105 96 -24 23 -89 78 -144 123 -124 102 -123 101 -165 131
-19 13 -37 27 -40 30 -15 18 -287 203 -383 260 -32 19 -66 40 -75 45 -191 114
-426 231 -638 320 -88 36 -168 70 -179 75 -44 20 -388 132 -510 165 -142 39
-439 104 -550 121 -22 3 -150 21 -206 29 -36 5 -53 7 -179 20 -36 3 -85 9
-110 11 -52 6 -666 14 -671 9z"/>
</g>
</svg>
