<?xml version="1.0" standalone="no"?>
<!DOCTYPE svg PUBLIC "-//W3C//DTD SVG 20010904//EN"
 "http://www.w3.org/TR/2001/REC-SVG-20010904/DTD/svg10.dtd">
<svg version="1.0" xmlns="http://www.w3.org/2000/svg"
 width="1182.000000pt" height="1182.000000pt" viewBox="0 0 1182.000000 1182.000000"
 preserveAspectRatio="xMidYMid meet">
<metadata>
Created by potrace 1.11, written by Peter Selinger 2001-2013
</metadata>
<g transform="translate(0.000000,1182.000000) scale(0.100000,-0.100000)"
fill="#000000" stroke="none">
<path d="M5619 11356 c-2 -2 -53 -6 -114 -10 -228 -14 -295 -21 -645 -72 -19
-3 -42 -7 -50 -9 -8 -2 -31 -7 -50 -10 -30 -5 -71 -12 -155 -29 -78 -16 -413
-99 -470 -116 -237 -73 -527 -177 -705 -253 -14 -6 -27 -11 -30 -12 -7 -2
-102 -46 -207 -95 -79 -38 -345 -176 -383 -200 -8 -5 -62 -37 -120 -71 -92
-55 -381 -242 -413 -269 -7 -6 -64 -49 -127 -96 -96 -73 -210 -164 -230 -184
-3 -3 -21 -18 -40 -34 -136 -110 -457 -429 -587 -583 -38 -45 -118 -143 -153
-186 -5 -7 -22 -28 -37 -47 -44 -54 -108 -142 -129 -175 -10 -16 -24 -34 -30
-40 -6 -5 -48 -68 -93 -140 -46 -71 -92 -142 -102 -157 -11 -15 -19 -30 -19
-33 0 -3 -17 -31 -39 -63 -37 -55 -60 -97 -132 -247 -19 -38 -39 -77 -46 -85
-17 -22 -126 -272 -163 -375 -46 -129 -139 -403 -145 -429 -3 -11 -16 -61 -30
-111 -34 -122 -79 -321 -91 -400 -3 -22 -9 -58 -14 -80 -5 -22 -11 -64 -15
-94 -4 -30 -9 -63 -11 -75 -2 -12 -7 -48 -10 -81 -3 -33 -7 -71 -9 -84 -13
-77 -20 -268 -20 -501 1 -347 13 -505 61 -805 21 -130 23 -145 34 -195 6 -25
12 -54 14 -66 8 -44 58 -242 77 -309 122 -422 298 -836 513 -1203 66 -113 166
-273 176 -282 3 -3 18 -25 34 -50 37 -57 224 -312 240 -325 6 -5 23 -26 38
-47 15 -20 33 -42 40 -50 7 -7 42 -47 78 -88 128 -148 293 -316 439 -449 47
-42 97 -88 112 -104 16 -15 31 -27 34 -27 3 0 18 -12 33 -26 39 -37 276 -222
357 -278 39 -27 98 -69 132 -93 34 -23 66 -43 72 -43 5 0 11 -4 13 -8 2 -7
102 -71 179 -117 187 -110 660 -355 686 -355 3 0 41 -16 86 -36 246 -108 782
-285 967 -317 14 -3 43 -10 65 -15 39 -10 229 -51 270 -58 11 -1 47 -8 80 -13
33 -6 78 -13 100 -16 22 -3 58 -8 80 -11 22 -4 49 -8 60 -9 45 -7 114 -15 170
-20 33 -4 74 -8 90 -10 166 -19 766 -27 985 -13 133 9 378 34 430 43 14 3 45
7 70 10 25 3 56 7 70 10 14 3 39 7 55 9 71 12 107 18 225 42 173 35 304 66
433 103 37 11 70 20 72 20 3 1 6 1 8 2 1 0 9 2 18 4 8 1 105 33 215 70 420
141 787 307 1175 532 20 12 47 27 60 35 13 7 26 16 29 19 3 3 16 12 30 19 38
20 315 205 330 220 3 3 17 13 32 23 28 17 194 146 254 196 81 67 122 102 148
126 15 14 29 25 31 25 19 0 390 375 510 515 28 32 62 72 77 89 15 17 55 67 90
111 35 44 66 82 70 83 5 2 8 10 8 18 0 8 5 14 10 14 6 0 10 4 10 10 0 5 10 21
22 35 36 42 132 183 221 325 125 201 173 286 266 475 128 259 235 532 319 810
28 93 94 351 107 420 18 94 54 307 59 350 4 28 9 66 11 85 22 164 30 331 30
600 -1 270 -7 398 -29 575 -3 22 -8 63 -11 90 -8 63 -50 305 -64 365 -5 25
-12 59 -16 75 -3 17 -16 73 -30 125 -14 52 -27 102 -30 111 -54 229 -245 717
-380 974 -20 39 -51 97 -68 130 -17 33 -36 67 -42 75 -7 8 -26 40 -43 71 -33
62 -63 111 -72 119 -4 3 -10 12 -14 20 -14 29 -67 112 -77 120 -3 3 -12 16
-19 29 -10 20 -146 210 -187 261 -117 148 -141 177 -218 266 -130 149 -318
341 -444 454 -40 36 -80 72 -90 81 -21 20 -247 206 -291 239 -18 14 -38 30
-45 35 -6 6 -18 15 -27 20 -21 13 -219 152 -239 168 -23 18 -52 36 -69 44 -8
4 -17 9 -20 13 -6 8 -117 75 -290 175 -297 171 -710 355 -1054 470 -157 52
-256 83 -286 91 -8 2 -56 14 -106 28 -92 26 -371 90 -434 101 -19 3 -84 15
-145 25 -184 32 -321 49 -635 77 -57 5 -716 13 -721 9z"/>
</g>
</svg>
